<svg xmlns="http://www.w3.org/2000/svg" width="1200" height="420" viewBox="0 0 1200 420" role="img" aria-label="Codex Session Bridge banner">
  <defs>
    <linearGradient id="bg" x1="0" y1="0" x2="1" y2="1">
      <stop offset="0" stop-color="#0f172a"/>
      <stop offset="0.55" stop-color="#1e3a8a"/>
      <stop offset="1" stop-color="#0f766e"/>
    </linearGradient>
    <radialGradient id="glow" cx="75%" cy="30%" r="65%">
      <stop offset="0" stop-color="#67e8f9" stop-opacity="0.38"/>
      <stop offset="1" stop-color="#67e8f9" stop-opacity="0"/>
    </radialGradient>
    <filter id="shadow" x="-20%" y="-20%" width="140%" height="140%">
      <feDropShadow dx="0" dy="16" stdDeviation="18" flood-color="#020617" flood-opacity="0.28"/>
    </filter>
  </defs>
  <rect width="1200" height="420" rx="36" fill="url(#bg)"/>
  <rect width="1200" height="420" rx="36" fill="url(#glow)"/>
  <g opacity="0.18" stroke="#dbeafe" stroke-width="2" fill="none">
    <path d="M0 310 C170 230 260 365 430 282 S730 180 900 258 1080 320 1200 250"/>
    <path d="M0 352 C160 272 300 390 455 326 S760 230 936 310 1088 360 1200 300"/>
  </g>
  <g transform="translate(82 74)" filter="url(#shadow)">
    <rect x="0" y="0" width="244" height="192" rx="28" fill="#f8fafc" opacity="0.97"/>
    <rect x="34" y="36" width="176" height="18" rx="9" fill="#2563eb" opacity="0.9"/>
    <rect x="34" y="74" width="128" height="14" rx="7" fill="#64748b" opacity="0.72"/>
    <rect x="34" y="104" width="154" height="14" rx="7" fill="#64748b" opacity="0.52"/>
    <rect x="34" y="134" width="104" height="14" rx="7" fill="#64748b" opacity="0.42"/>
  </g>
  <g transform="translate(284 154)">
    <path d="M0 48 H136" stroke="#a7f3d0" stroke-width="10" stroke-linecap="round"/>
    <path d="M96 10 L136 48 L96 86" stroke="#a7f3d0" stroke-width="10" stroke-linecap="round" stroke-linejoin="round" fill="none"/>
  </g>
  <g transform="translate(446 74)" filter="url(#shadow)">
    <rect x="0" y="0" width="244" height="192" rx="28" fill="#ecfeff" opacity="0.97"/>
    <rect x="34" y="36" width="176" height="18" rx="9" fill="#0f766e" opacity="0.9"/>
    <rect x="34" y="74" width="128" height="14" rx="7" fill="#64748b" opacity="0.72"/>
    <rect x="34" y="104" width="154" height="14" rx="7" fill="#64748b" opacity="0.52"/>
    <rect x="34" y="134" width="104" height="14" rx="7" fill="#64748b" opacity="0.42"/>
  </g>
  <text x="750" y="132" fill="#f8fafc" font-family="Inter, ui-sans-serif, system-ui, -apple-system, BlinkMacSystemFont, 'Segoe UI', sans-serif" font-size="58" font-weight="800">Codex Session Bridge</text>
  <text x="754" y="188" fill="#bfdbfe" font-family="Inter, ui-sans-serif, system-ui, -apple-system, BlinkMacSystemFont, 'Segoe UI', sans-serif" font-size="30" font-weight="650">Codex 会话桥</text>
  <text x="754" y="246" fill="#e0f2fe" font-family="Inter, ui-sans-serif, system-ui, -apple-system, BlinkMacSystemFont, 'Segoe UI', sans-serif" font-size="25" font-weight="500">个人账号 / API 代理来回切</text>
  <text x="754" y="288" fill="#a7f3d0" font-family="Inter, ui-sans-serif, system-ui, -apple-system, BlinkMacSystemFont, 'Segoe UI', sans-serif" font-size="25" font-weight="700">历史会话不消失，上下文不断档</text>
  <g transform="translate(754 326)">
    <rect x="0" y="0" width="272" height="42" rx="21" fill="#020617" opacity="0.34"/>
    <text x="22" y="28" fill="#ffffff" font-family="ui-monospace, SFMono-Regular, Menlo, Monaco, Consolas, monospace" font-size="17">not an API switcher</text>
  </g>
</svg>
